<?xml version="1.0" encoding="utf-8"?>
<!-- Generator: Adobe Illustrator 24.2.1, SVG Export Plug-In . SVG Version: 6.00 Build 0)  -->
<svg version="1.1" id="Layer_1" xmlns="http://www.w3.org/2000/svg" xmlns:xlink="http://www.w3.org/1999/xlink" x="0px" y="0px"
	 viewBox="0 0 256 256" style="enable-background:new 0 0 256 256;" xml:space="preserve">
<style type="text/css">
	.st0{fill:url(#SVGID_1_);}
	.st1{fill:url(#SVGID_2_);}
	.st2{fill:url(#SVGID_3_);}
	.st3{fill:url(#SVGID_4_);}
</style>
<g>
	<g id="Dollar_coin">
		
			<linearGradient id="SVGID_1_" gradientUnits="userSpaceOnUse" x1="1.8459" y1="128.8518" x2="254.4535" y2="128.8518" gradientTransform="matrix(1 9.095873e-04 -9.216561e-04 1.0133 0.1203 -3.3326)">
			<stop  offset="0" style="stop-color:#D4AF37"/>
			<stop  offset="0.0283" style="stop-color:#D7B545"/>
			<stop  offset="0.0791" style="stop-color:#DBBC58"/>
			<stop  offset="0.1315" style="stop-color:#DEC163"/>
			<stop  offset="0.1873" style="stop-color:#DEC267"/>
			<stop  offset="0.4094" style="stop-color:#EDDDAB"/>
			<stop  offset="0.7526" style="stop-color:#DA9E37"/>
			<stop  offset="1" style="stop-color:#D4AF37"/>
		</linearGradient>
		<path class="st0" d="M140.89,12.18l-25.26-0.02C52.85,12.1,1.91,63.62,1.85,127.23s50.79,115.23,113.57,115.28l25.26,0.02
			c62.78,0.06,113.72-51.46,113.78-115.08S203.67,12.23,140.89,12.18z M241.85,97.59l-16.53-0.02c-1.55-5.84-3.55-11.55-5.99-17.07
			l15.98,0.01C237.97,86,240.16,91.72,241.85,97.59z M225.27,157.29l16.53,0.02c-1.69,5.87-3.88,11.57-6.55,17.06l-16-0.01
			C221.7,168.84,223.71,163.13,225.27,157.29z M227.19,148.76c1.05-5.63,1.68-11.33,1.9-17.06l16.84,0.02
			c-0.22,5.73-0.9,11.44-2.03,17.06L227.19,148.76z M229.09,123.17c-0.2-5.73-0.83-11.43-1.87-17.07l16.72,0.02
			c1.12,5.62,1.79,11.33,2,17.07L229.09,123.17z M230.7,71.98l-15.54-0.01c-3.28-6.02-7.07-11.74-11.35-17.07l14.11,0.01
			C222.73,60.15,227.01,65.87,230.7,71.98L230.7,71.98z M209.15,46.36l-12.88-0.01c-9.14-9.37-19.79-17.08-31.5-22.82
			C181.16,27.43,196.38,35.26,209.15,46.36L209.15,46.36z M10.27,127.24c0.05-58.9,47.22-106.61,105.35-106.55
			s105.21,47.84,105.16,106.74s-47.22,106.61-105.35,106.55C57.32,233.86,10.28,186.11,10.27,127.24z M196.12,208.46l12.88,0.01
			c-12.79,11.08-28.03,18.88-44.42,22.75C176.3,225.51,186.96,217.81,196.12,208.46z M217.79,199.95l-14.11-0.01
			c4.29-5.33,8.1-11.04,11.38-17.05l15.54,0.01C226.91,189,222.62,194.71,217.79,199.95z"/>
		
			<linearGradient id="SVGID_2_" gradientUnits="userSpaceOnUse" x1="18.6864" y1="128.8518" x2="212.3522" y2="128.8518" gradientTransform="matrix(1 9.095873e-04 -9.216561e-04 1.0133 0.1203 -3.3326)">
			<stop  offset="0" style="stop-color:#D4AF37"/>
			<stop  offset="0.0283" style="stop-color:#D7B545"/>
			<stop  offset="0.0791" style="stop-color:#DBBC58"/>
			<stop  offset="0.1315" style="stop-color:#DEC163"/>
			<stop  offset="0.1873" style="stop-color:#DEC267"/>
			<stop  offset="0.4094" style="stop-color:#EDDDAB"/>
			<stop  offset="0.7526" style="stop-color:#DA9E37"/>
			<stop  offset="1" style="stop-color:#D4AF37"/>
		</linearGradient>
		<path class="st1" d="M212.35,127.42c0.05-54.19-43.26-98.16-96.74-98.2s-96.87,43.84-96.92,98.03s43.26,98.16,96.74,98.2
			C168.89,225.44,212.24,181.58,212.35,127.42z M27.11,127.25c0.05-49.48,39.67-89.55,88.49-89.5
			c48.83,0.04,88.38,40.19,88.33,89.67c-0.05,49.48-39.67,89.55-88.49,89.5C66.63,216.82,27.12,176.71,27.11,127.25z"/>
	</g>
	
		<linearGradient id="SVGID_3_" gradientUnits="userSpaceOnUse" x1="60.8828" y1="127.6043" x2="106.5195" y2="127.6043" gradientTransform="matrix(1 9.095873e-04 -9.216561e-04 1.0133 0.1203 -3.3326)">
		<stop  offset="0" style="stop-color:#D4AF37"/>
		<stop  offset="0.0283" style="stop-color:#D7B545"/>
		<stop  offset="0.0791" style="stop-color:#DBBC58"/>
		<stop  offset="0.1315" style="stop-color:#DEC163"/>
		<stop  offset="0.1873" style="stop-color:#DEC267"/>
		<stop  offset="0.4094" style="stop-color:#EDDDAB"/>
		<stop  offset="0.7526" style="stop-color:#DA9E37"/>
		<stop  offset="1" style="stop-color:#D4AF37"/>
	</linearGradient>
	<path class="st2" d="M106.47,180.45l-45.64-0.04l0.08-88.68c0.01-10.62,9.37-20.08,20.9-20.07l3.88,0
		c11.53,0.01,20.87,9.49,20.86,20.11L106.47,180.45z"/>
	
		<linearGradient id="SVGID_4_" gradientUnits="userSpaceOnUse" x1="124.5831" y1="127.6043" x2="170.2198" y2="127.6043" gradientTransform="matrix(1 9.095873e-04 -9.216561e-04 1.0133 0.1203 -3.3326)">
		<stop  offset="0" style="stop-color:#D4AF37"/>
		<stop  offset="0.0283" style="stop-color:#D7B545"/>
		<stop  offset="0.0791" style="stop-color:#DBBC58"/>
		<stop  offset="0.1315" style="stop-color:#DEC163"/>
		<stop  offset="0.1873" style="stop-color:#DEC267"/>
		<stop  offset="0.4094" style="stop-color:#EDDDAB"/>
		<stop  offset="0.7526" style="stop-color:#DA9E37"/>
		<stop  offset="1" style="stop-color:#D4AF37"/>
	</linearGradient>
	<path class="st3" d="M170.17,180.5l-45.64-0.04l0.08-86.72c0.01-11.7,10.24-22.05,22.84-22.03h0c12.6,0.01,22.81,10.37,22.8,22.08
		L170.17,180.5z"/>
</g>
</svg>
