<?xml version="1.0" encoding="utf-8"?>
<!-- Generator: Adobe Illustrator 24.2.1, SVG Export Plug-In . SVG Version: 6.00 Build 0)  -->
<svg version="1.1" id="Layer_1" xmlns="http://www.w3.org/2000/svg" xmlns:xlink="http://www.w3.org/1999/xlink" x="0px" y="0px"
	 viewBox="0 0 256 256" style="enable-background:new 0 0 256 256;" xml:space="preserve">
<style type="text/css">
	.st0{fill:url(#SVGID_1_);}
	.st1{display:none;fill:#FFFFFF;}
	.st2{fill:url(#SVGID_2_);}
	.st3{fill:url(#SVGID_3_);}
	.st4{fill:url(#SVGID_4_);}
	.st5{fill:url(#SVGID_5_);}
</style>
<linearGradient id="SVGID_1_" gradientUnits="userSpaceOnUse" x1="72.9225" y1="120.8307" x2="254.1402" y2="120.8307">
	<stop  offset="0" style="stop-color:#D4AF37"/>
	<stop  offset="0.0283" style="stop-color:#D7B545"/>
	<stop  offset="0.0791" style="stop-color:#DBBC58"/>
	<stop  offset="0.1315" style="stop-color:#DEC163"/>
	<stop  offset="0.1873" style="stop-color:#DEC267"/>
	<stop  offset="0.4094" style="stop-color:#EDDDAB"/>
	<stop  offset="0.7526" style="stop-color:#DA9E37"/>
	<stop  offset="1" style="stop-color:#D4AF37"/>
</linearGradient>
<path class="st0" d="M254.11,93.65c-0.3-5.17-6.45-9.21-18.74-12.29c0.41-0.91,0.65-1.85,0.65-2.83V57.4h-0.05
	c-1.08-17.6-73.21-18.12-81.5-18.12S74.06,39.8,72.97,57.4h-0.05v21.02c1.63,0.14,3.24,0.35,4.86,0.58
	c0.44,0.04,0.87,0.07,1.31,0.11c-0.08-0.2-0.12-0.4-0.12-0.58V66.03c2.41,1.52,5.47,2.91,9.06,4.16v10.19
	c1.98,0.17,3.98,0.24,5.99,0.13c0.02,0,0.03-0.01,0.05-0.01v-8.46c2.82,0.76,5.85,1.46,9.06,2.09v8.67
	c2.03,0.64,4.05,1.31,6.04,2.03V75.2c2.92,0.47,5.95,0.9,9.06,1.27v11.1c2.21,0.98,4.22,2.19,6.04,3.61V77.12
	c2.97,0.29,6,0.53,9.06,0.73v15.04c-2.64-0.19-5.23-0.41-7.78-0.66c0.05,0.04,0.09,0.08,0.13,0.13c0.27,0.14,0.55,0.3,0.82,0.5
	c0.53,0.39,1.05,0.8,1.57,1.22c2.22,1.5,4.35,3.13,6.36,4.93c0.6,0.04,1.2,0.09,1.81,0.12c0.04,0,0.07,0.02,0.11,0.02
	c0.02,0,0.04-0.01,0.06-0.01c3.7,0.22,7.45,0.38,11.24,0.46c2.32,0.06,4.6,0.09,6.82,0.09c1.59,0,3.21-0.02,4.85-0.05
	c21.95-0.34,42.28-2.95,56.44-6.99c0.65-0.18,1.29-0.37,1.92-0.56c0.38-0.12,0.78-0.23,1.15-0.35c1.09-0.35,2.14-0.71,3.15-1.08
	c0.18-0.07,0.34-0.13,0.52-0.2c0.85-0.32,1.68-0.66,2.46-1c0.23-0.1,0.46-0.2,0.68-0.3c0.84-0.38,1.65-0.76,2.4-1.17
	c0.34-0.18,0.63-0.36,0.95-0.54c0.36-0.21,0.72-0.42,1.06-0.63c0.19-0.12,0.42-0.24,0.6-0.36c13.52,2.93,17.09,6.14,17.43,7.39
	c-0.28,2.05-4.93,4.78-13.22,7.34c-10.69,3.3-27.41,6.32-48.6,7.26c-1.08,0.05-2.17,0.09-3.27,0.13c-0.9,0.03-1.81,0.06-2.73,0.08
	c-2.5,0.05-5.04,0.09-7.65,0.09s-5.15-0.04-7.65-0.1c-0.92-0.02-1.82-0.05-2.73-0.08c-1.11-0.03-2.19-0.08-3.27-0.13
	c-6.12-0.27-11.83-0.73-17.16-1.3c0.68,0.93,1.33,1.89,1.96,2.89c0.74,1.18,1.43,2.4,2.09,3.63c1.86,0.16,3.73,0.31,5.62,0.43v13.25
	c0.78,2.62,1.43,5.29,1.96,7.98c0.35,0.02,0.69,0.05,1.03,0.07c0.01,0,0.02,0,0.02,0s0.01,0,0.01,0c4.09,0.24,8.27,0.4,12.54,0.48
	c1.89,0.04,3.75,0.06,5.57,0.06c2.08,0,4.22-0.02,6.4-0.08c3.95-0.08,7.84-0.24,11.68-0.47c0.02,0,0.03,0.01,0.04,0.01
	c0.03,0,0.05-0.02,0.08-0.02c12.76-0.75,24.74-2.27,34.87-4.46c-2.19,1.15-5.19,2.33-8.93,3.49c-11.28,3.49-29.3,6.66-52.19,7.4
	c-0.68,0.02-1.35,0.05-2.04,0.06c-0.74,0.02-1.49,0.03-2.24,0.05c-1.89,0.03-3.8,0.06-5.75,0.06c0.74,5.78,0.99,11.62,0.85,17.34
	c-0.03,1.29-0.46,2.32-1.13,3.09c0,0.1,0,0.2,0,0.3c-0.14,2.18-0.52,4.33-1.09,6.44c0.45,0,0.9,0.01,1.34,0.01
	c1.66,0,3.37-0.02,5.09-0.05c4.41-0.07,8.76-0.24,13.01-0.49c0.01,0,0.02,0.01,0.02,0.01c0.02,0,0.02-0.01,0.04-0.01
	c5.18-0.31,10.19-0.76,15.01-1.31c0.02,0,0.03,0.01,0.05,0.01c0.07,0,0.12-0.03,0.19-0.04c5.36-0.62,10.45-1.38,15.17-2.27
	c0.97-0.18,1.93-0.36,2.88-0.55c0.21-0.04,0.42-0.08,0.63-0.13c8.92-1.83,16.64-4.2,21.94-7.14c0.29-0.16,0.56-0.32,0.84-0.48
	c0.34-0.2,0.66-0.4,0.97-0.61c0.29-0.19,0.63-0.37,0.89-0.56c5.96,2.13,7.61,4.03,7.8,4.79c-0.33,2.04-4.97,4.76-13.22,7.31
	c-10.69,3.3-27.41,6.32-48.6,7.26c-1.08,0.05-2.17,0.09-3.27,0.13c-0.9,0.03-1.81,0.06-2.73,0.08c-2.5,0.05-5.04,0.09-7.65,0.09
	c-2.62,0-5.16-0.04-7.66-0.1c-0.91-0.02-1.81-0.05-2.7-0.08c-0.71-0.02-1.4-0.05-2.1-0.08c-2.15,4.88-5.21,9.51-8.68,13.79v6.88
	c-1.96-0.14-3.84-0.3-5.7-0.48c-1.85,1.91-3.74,3.73-5.6,5.44c4.65,0.51,9.36,0.92,14.02,1.22c0.1,0.01,0.19,0.06,0.3,0.06
	c0.06,0,0.1-0.03,0.16-0.03c6.19,0.37,12.27,0.56,17.96,0.56c5.69,0,11.78-0.19,17.96-0.57c0.05,0,0.1,0.03,0.16,0.03
	c0.11,0,0.2-0.05,0.3-0.06c4.87-0.31,9.79-0.73,14.64-1.28c0.06,0,0.11,0.03,0.16,0.03c0.2,0,0.37-0.08,0.55-0.11
	c25.13-2.91,47.75-9.15,47.78-19.2v-21.13h-0.05c-0.21-3.7-3.37-6.79-9.6-9.38c0.38-0.87,0.59-1.78,0.59-2.72v-19.74
	c10.84-3.33,18.11-7.8,18.12-13.48V93.65H254.11z M151.45,93.61c-4.07-0.04-8.11-0.15-12.08-0.34V78.2
	c3.03,0.14,6.07,0.24,9.11,0.29c0.16,0,0.32,0,0.48,0.01c0.83,0.02,1.66,0.03,2.49,0.04V93.61z M169.57,93.26
	c-0.51,0.02-1.01,0.06-1.52,0.08c-0.04,0-0.08,0-0.13,0.01c-2.03,0.09-4.09,0.16-6.19,0.21c-0.33,0.01-0.65,0.01-0.98,0.02
	c-1.08,0.02-2.17,0.02-3.26,0.04V78.53c0.83-0.01,1.66-0.02,2.49-0.04c0.16,0,0.32-0.01,0.48-0.01c3.04-0.06,6.08-0.15,9.11-0.29
	V93.26z M184.67,92.1c-2.92,0.31-5.94,0.58-9.06,0.8V77.85c3.06-0.2,6.09-0.45,9.06-0.73V92.1z M199.77,90
	c-2.86,0.51-5.88,0.97-9.06,1.39V76.47c3.11-0.37,6.14-0.8,9.06-1.27V90z M214.88,86.59c-2.71,0.79-5.75,1.54-9.06,2.25V74.12
	c3.21-0.63,6.24-1.33,9.06-2.09V86.59z M216.72,64.94c-10.69,3.3-27.41,6.32-48.6,7.26c-1.08,0.05-2.17,0.09-3.27,0.13
	c-0.9,0.03-1.81,0.06-2.73,0.08c-2.5,0.06-5.04,0.1-7.65,0.1c-2.62,0-5.15-0.04-7.65-0.1c-0.92-0.02-1.82-0.05-2.73-0.08
	c-1.11-0.03-2.19-0.08-3.27-0.13c-21.19-0.94-37.91-3.96-48.6-7.26c-8.21-2.54-12.85-5.23-13.21-7.28
	c0.47-4.5,25.66-12.34,75.46-12.34s74.99,7.84,75.46,12.34C229.57,59.71,224.93,62.4,216.72,64.94z M229.98,78.53
	c0,0.46-0.24,0.95-0.69,1.48l-0.08-0.02l-1.1,0.85c-1.59,1.24-4.04,2.5-7.19,3.71V70.18c3.59-1.25,6.65-2.64,9.06-4.16V78.53z
	 M169.57,129.86c-1.47-0.02-2.95-0.02-4.39-0.05c-0.22-0.01-0.45-0.01-0.67-0.02c-2.27-0.06-4.49-0.14-6.67-0.25
	c-0.12-0.01-0.24-0.01-0.35-0.02v-15.08c3.03,0.14,6.07,0.24,9.11,0.29c0.16,0,0.32,0.01,0.48,0.01c0.83,0.02,1.66,0.03,2.49,0.04
	V129.86z M187.69,129.5c-3.97,0.2-8,0.31-12.08,0.35v-15.08c0.83-0.01,1.66-0.02,2.49-0.04c0.16,0,0.32-0.01,0.48-0.01
	c3.04-0.06,6.08-0.15,9.11-0.29V129.5z M169.57,162.74c-0.65,0.03-1.3,0.06-1.95,0.09c-1.82,0.08-3.65,0.14-5.52,0.19
	c-0.44,0.01-0.88,0.02-1.33,0.03c-1.08,0.02-2.18,0.03-3.28,0.04V148c0.83-0.01,1.66-0.02,2.49-0.04c0.16,0,0.32-0.01,0.48-0.01
	c3.04-0.06,6.08-0.15,9.11-0.29V162.74z M184.67,161.59c-1.87,0.2-3.78,0.38-5.74,0.54c-0.44,0.04-0.88,0.07-1.31,0.11
	c-0.66,0.05-1.33,0.1-2.01,0.15v-15.06c3.06-0.2,6.09-0.44,9.06-0.73V161.59z M199.77,159.49c-2.85,0.5-5.87,0.97-9.06,1.38v-14.94
	c3.11-0.37,6.14-0.8,9.06-1.27V159.49z M214.88,156.09c-2.69,0.78-5.72,1.53-9.06,2.24v-14.74c3.21-0.63,6.24-1.33,9.06-2.09V156.09
	z M202.8,128.35c-1.75,0.18-3.51,0.37-5.31,0.52c-0.11,0.01-0.21,0.02-0.32,0.03c-1.13,0.09-2.29,0.15-3.43,0.24V114.1
	c3.06-0.2,6.09-0.44,9.06-0.73V128.35z M217.9,126.27c-0.1,0.02-0.19,0.04-0.28,0.05c-1.33,0.23-2.66,0.46-4.04,0.66
	c-0.79,0.12-1.59,0.24-2.4,0.35c-0.76,0.11-1.56,0.2-2.33,0.3v-14.92c3.11-0.37,6.14-0.8,9.06-1.27V126.27z M229.98,148
	c0,0.31-0.11,0.64-0.33,0.99l-1.03,0.9c-1.59,1.4-4.23,2.81-7.7,4.17v-14.4c3.59-1.25,6.65-2.64,9.06-4.16V148z M233,122.87
	c-0.43,0.12-0.87,0.24-1.32,0.37c-1.5,0.42-3.1,0.81-4.72,1.2c-0.75,0.18-1.52,0.35-2.3,0.52c-0.23,0.05-0.48,0.1-0.72,0.15v-14.74
	c3.21-0.63,6.24-1.33,9.06-2.09V122.87z M160.51,196.32c-4.17-0.04-8.2-0.16-12.08-0.35v-15.08c3.03,0.14,6.07,0.24,9.11,0.29
	c0.16,0,0.32,0,0.48,0.01c0.83,0.02,1.66,0.03,2.49,0.04V196.32z M178.63,195.97c-3.88,0.19-7.91,0.31-12.08,0.35v-15.1
	c0.83-0.01,1.66-0.02,2.49-0.04c0.16,0,0.32,0,0.48-0.01c3.04-0.06,6.08-0.15,9.11-0.29V195.97z M193.73,194.81
	c-2.9,0.31-5.92,0.57-9.06,0.79v-15.06c3.06-0.2,6.09-0.44,9.06-0.73V194.81z M208.84,192.71c-2.85,0.5-5.87,0.96-9.06,1.38v-14.94
	c3.11-0.37,6.14-0.8,9.06-1.27V192.71z M223.94,189.31c-2.69,0.78-5.72,1.53-9.06,2.24v-14.74c3.21-0.63,6.24-1.33,9.06-2.09V189.31
	z M239.04,181.22c0,1.7-3.19,3.91-9.06,6.12v-14.46c3.59-1.25,6.65-2.64,9.06-4.16V181.22z M248.1,114.77c0,1.7-3.19,3.91-9.06,6.12
	v-14.46c3.59-1.25,6.65-2.64,9.06-4.16V114.77z"/>
<g>
	<g id="Dollar_coin">
		<circle class="st1" cx="87.85" cy="147.78" r="67.58"/>
		
			<linearGradient id="SVGID_2_" gradientUnits="userSpaceOnUse" x1="2.07" y1="149.534" x2="159.1105" y2="149.534" gradientTransform="matrix(1 9.095873e-04 -9.216561e-04 1.0133 0.1203 -3.3326)">
			<stop  offset="0" style="stop-color:#D4AF37"/>
			<stop  offset="0.0283" style="stop-color:#D7B545"/>
			<stop  offset="0.0791" style="stop-color:#DBBC58"/>
			<stop  offset="0.1315" style="stop-color:#DEC163"/>
			<stop  offset="0.1873" style="stop-color:#DEC267"/>
			<stop  offset="0.4094" style="stop-color:#EDDDAB"/>
			<stop  offset="0.7526" style="stop-color:#DA9E37"/>
			<stop  offset="1" style="stop-color:#D4AF37"/>
		</linearGradient>
		<path class="st2" d="M88.49,76.66l-15.7-0.01c-39.03-0.04-70.7,31.99-70.73,71.54c-0.04,39.55,31.57,71.63,70.6,71.67l15.7,0.01
			c39.03,0.04,70.7-31.99,70.73-71.54C159.13,108.78,127.52,76.69,88.49,76.66z M151.26,129.76l-10.28-0.01
			c-0.96-3.63-2.21-7.18-3.72-10.61l9.93,0.01C148.85,122.56,150.21,126.11,151.26,129.76z M140.95,166.88l10.28,0.01
			c-1.05,3.65-2.41,7.2-4.07,10.6l-9.95-0.01C138.73,174.05,139.98,170.51,140.95,166.88z M142.14,161.57
			c0.65-3.5,1.05-7.05,1.18-10.61l10.47,0.01c-0.14,3.56-0.56,7.11-1.26,10.61L142.14,161.57z M143.33,145.66
			c-0.13-3.56-0.51-7.11-1.16-10.61l10.4,0.01c0.7,3.5,1.11,7.04,1.24,10.61L143.33,145.66z M144.33,113.84l-9.66-0.01
			c-2.04-3.74-4.4-7.3-7.06-10.61l8.77,0.01C139.37,106.48,142.03,110.04,144.33,113.84L144.33,113.84z M130.93,97.91l-8.01-0.01
			c-5.68-5.82-12.3-10.62-19.58-14.19C113.53,86.14,122.99,91.01,130.93,97.91L130.93,97.91z M7.29,148.19
			c0.03-36.62,29.36-66.27,65.49-66.24c36.14,0.03,65.41,29.74,65.37,66.36c-0.03,36.62-29.36,66.27-65.49,66.24
			C36.54,214.48,7.29,184.79,7.29,148.19z M122.83,198.68l8.01,0.01c-7.95,6.89-17.42,11.74-27.61,14.14
			C110.5,209.28,117.14,204.5,122.83,198.68z M136.3,193.39l-8.77-0.01c2.67-3.31,5.03-6.86,7.08-10.6l9.66,0.01
			C141.97,186.59,139.3,190.14,136.3,193.39z"/>
		
			<linearGradient id="SVGID_3_" gradientUnits="userSpaceOnUse" x1="12.5394" y1="149.534" x2="132.9371" y2="149.534" gradientTransform="matrix(1 9.095873e-04 -9.216561e-04 1.0133 0.1203 -3.3326)">
			<stop  offset="0" style="stop-color:#D4AF37"/>
			<stop  offset="0.0283" style="stop-color:#D7B545"/>
			<stop  offset="0.0791" style="stop-color:#DBBC58"/>
			<stop  offset="0.1315" style="stop-color:#DEC163"/>
			<stop  offset="0.1873" style="stop-color:#DEC267"/>
			<stop  offset="0.4094" style="stop-color:#EDDDAB"/>
			<stop  offset="0.7526" style="stop-color:#DA9E37"/>
			<stop  offset="1" style="stop-color:#D4AF37"/>
		</linearGradient>
		<path class="st3" d="M132.92,148.3c0.03-33.69-26.9-61.02-60.14-61.05c-33.25-0.03-60.22,27.25-60.25,60.94
			s26.9,61.02,60.14,61.05C105.9,209.24,132.85,181.98,132.92,148.3z M17.76,148.2c0.03-30.76,24.66-55.67,55.01-55.64
			s54.94,24.98,54.91,55.74s-24.66,55.67-55.01,55.64C42.33,203.88,17.76,178.94,17.76,148.2z"/>
	</g>
	
		<linearGradient id="SVGID_4_" gradientUnits="userSpaceOnUse" x1="38.7719" y1="148.7585" x2="67.1432" y2="148.7585" gradientTransform="matrix(1 9.095873e-04 -9.216561e-04 1.0133 0.1203 -3.3326)">
		<stop  offset="0" style="stop-color:#D4AF37"/>
		<stop  offset="0.0283" style="stop-color:#D7B545"/>
		<stop  offset="0.0791" style="stop-color:#DBBC58"/>
		<stop  offset="0.1315" style="stop-color:#DEC163"/>
		<stop  offset="0.1873" style="stop-color:#DEC267"/>
		<stop  offset="0.4094" style="stop-color:#EDDDAB"/>
		<stop  offset="0.7526" style="stop-color:#DA9E37"/>
		<stop  offset="1" style="stop-color:#D4AF37"/>
	</linearGradient>
	<path class="st4" d="M67.1,181.27l-28.37-0.03l0.05-55.13c0.01-6.6,5.82-12.48,12.99-12.48l2.41,0c7.17,0.01,12.97,5.9,12.97,12.5
		L67.1,181.27z"/>
	
		<linearGradient id="SVGID_5_" gradientUnits="userSpaceOnUse" x1="78.373" y1="148.7585" x2="106.7443" y2="148.7585" gradientTransform="matrix(1 9.095873e-04 -9.216561e-04 1.0133 0.1203 -3.3326)">
		<stop  offset="0" style="stop-color:#D4AF37"/>
		<stop  offset="0.0283" style="stop-color:#D7B545"/>
		<stop  offset="0.0791" style="stop-color:#DBBC58"/>
		<stop  offset="0.1315" style="stop-color:#DEC163"/>
		<stop  offset="0.1873" style="stop-color:#DEC267"/>
		<stop  offset="0.4094" style="stop-color:#EDDDAB"/>
		<stop  offset="0.7526" style="stop-color:#DA9E37"/>
		<stop  offset="1" style="stop-color:#D4AF37"/>
	</linearGradient>
	<path class="st5" d="M106.7,181.3l-28.37-0.03l0.05-53.91c0.01-7.28,6.36-13.7,14.2-13.7h0c7.83,0.01,14.18,6.45,14.17,13.72
		L106.7,181.3z"/>
</g>
</svg>
